<svg xmlns="http://www.w3.org/2000/svg" width="34.573" height="37.144" viewBox="0 0 34.573 37.144"><defs><style>.a{fill:#959595;}.b{fill:#f5891f;}.c{fill:#131629;}.d{fill:#f08a21;}.e{fill:none;}</style></defs><g transform="translate(4.619 13.805)"><g transform="translate(8.893)"><path class="a" d="M8.017,70.177a.141.141,0,0,1-.141-.141V68.489a.141.141,0,1,1,.282,0v1.547A.141.141,0,0,1,8.017,70.177Z" transform="translate(-7.876 -68.348)"/></g><g transform="translate(8.844 2.925)"><path class="b" d="M8.325,75.336a.211.211,0,0,1-.21-.2l-.256-5.548a.209.209,0,1,1,.417-.02l.259,5.551a.209.209,0,0,1-.2.219Z" transform="translate(-7.859 -69.365)"/></g><g transform="translate(9.031 8.752)"><path d="M8.324,76.939a.278.278,0,0,1-.279-.273l-.121-4.987a.279.279,0,1,1,.558-.014l.121,4.99a.279.279,0,0,1-.273.285Z" transform="translate(-7.924 -71.391)"/></g><g transform="translate(4.346 1.366)"><path class="a" d="M7.209,70.445a.138.138,0,0,1-.121-.072l-.774-1.34a.137.137,0,0,1,.049-.19.139.139,0,0,1,.193.052l.774,1.34a.14.14,0,0,1-.052.19A.121.121,0,0,1,7.209,70.445Z" transform="translate(-6.295 -68.823)"/></g><g transform="translate(1.09 4.825)"><path class="a" d="M6.644,71.079a.153.153,0,0,1-.069-.017l-1.34-.777a.135.135,0,0,1-.052-.19.14.14,0,0,1,.19-.052l1.343.774a.141.141,0,0,1-.072.262Z" transform="translate(-5.163 -70.026)"/></g><g transform="translate(0 9.448)"><path class="a" d="M6.472,71.912H4.925a.141.141,0,0,1-.141-.141.139.139,0,0,1,.141-.138H6.472a.139.139,0,0,1,.141.138A.141.141,0,0,1,6.472,71.912Z" transform="translate(-4.784 -71.633)"/></g><g transform="translate(1.368 13.22)"><path class="a" d="M5.4,74a.14.14,0,0,1-.069-.262l1.34-.774a.144.144,0,0,1,.193.052.14.14,0,0,1-.052.19l-1.34.777A.156.156,0,0,1,5.4,74Z" transform="translate(-5.26 -72.945)"/></g><g transform="translate(4.826 15.908)"><path class="a" d="M6.6,75.5a.13.13,0,0,1-.072-.02.137.137,0,0,1-.049-.19l.774-1.34a.135.135,0,0,1,.19-.052.14.14,0,0,1,.052.19l-.774,1.34A.141.141,0,0,1,6.6,75.5Z" transform="translate(-6.462 -73.879)"/></g><g transform="translate(9.448 16.79)"><path class="a" d="M8.21,76.015a.141.141,0,0,1-.141-.141V74.327a.139.139,0,1,1,.279,0v1.547A.141.141,0,0,1,8.21,76.015Z" transform="translate(-8.069 -74.186)"/></g><g transform="translate(12.741 1.089)"><path class="a" d="M9.355,70.347a.156.156,0,0,1-.072-.017.137.137,0,0,1-.049-.19l.774-1.343a.14.14,0,0,1,.19-.052.144.144,0,0,1,.052.193l-.774,1.34A.138.138,0,0,1,9.355,70.347Z" transform="translate(-9.214 -68.727)"/></g><path class="b" d="M9,71.8a.594.594,0,1,1-.6-.592A.6.6,0,0,1,9,71.8Z" transform="translate(0.902 -62.983)"/><g transform="translate(15.281 3.929)"><path class="a" d="M10.238,70.769a.138.138,0,0,1-.121-.072.135.135,0,0,1,.052-.19l1.34-.774a.137.137,0,0,1,.19.049.14.14,0,0,1-.049.193l-1.343.774A.147.147,0,0,1,10.238,70.769Z" transform="translate(-10.097 -69.714)"/></g><g transform="translate(16.554 7.408)"><path class="a" d="M10.679,71.661a.136.136,0,0,1-.132-.1.139.139,0,0,1,.092-.175l1.478-.457a.141.141,0,0,1,.175.095.137.137,0,0,1-.092.173l-1.481.457Z" transform="translate(-10.54 -70.924)"/></g></g><g transform="translate(6.155 15.246)"><path class="c" d="M6.3,68.849l-.981.975A9.806,9.806,0,0,1,6.3,68.849Z" transform="translate(-5.318 -68.849)"/></g><path class="d" d="M14.529,80.432H11.317L10.7,82.264H8.757l3.31-8.893h1.7l3.33,8.893H15.148Zm-2.718-1.484h2.223l-1.119-3.33Z" transform="translate(7.288 -45.12)"/><path class="d" d="M14.341,73.371l2.284,6.451L18.9,73.371H21.3v8.893H19.466v-2.43l.184-4.2-2.4,6.626h-1.26L13.6,75.643l.181,4.19v2.43H11.945V73.371Z" transform="translate(13.269 -45.12)"/><path class="e" d="M4.156,71.359c-.029.109-.052.221-.078.334C4.1,71.58,4.127,71.468,4.156,71.359Z" transform="translate(-1.49 -48.894)"/><path class="e" d="M4.224,71.138c-.032.1-.06.21-.089.316C4.164,71.348,4.193,71.242,4.224,71.138Z" transform="translate(-1.383 -49.309)"/><path class="e" d="M4.1,71.585c-.023.115-.043.236-.063.354C4.052,71.821,4.072,71.7,4.1,71.585Z" transform="translate(-1.576 -48.47)"/><path class="e" d="M4.3,70.92c-.037.1-.069.21-.1.313C4.236,71.13,4.267,71.024,4.3,70.92Z" transform="translate(-1.259 -49.718)"/><path class="e" d="M3.976,72.284c-.009.23-.014.46-.014.69C3.962,72.744,3.968,72.514,3.976,72.284Z" transform="translate(-1.707 -47.159)"/><path class="e" d="M4.006,72.048c-.014.144-.023.288-.032.431C3.983,72.336,3.991,72.192,4.006,72.048Z" transform="translate(-1.685 -47.602)"/><path class="e" d="M4.046,71.815c-.02.124-.032.25-.049.377C4.014,72.065,4.026,71.939,4.046,71.815Z" transform="translate(-1.642 -48.039)"/><path class="e" d="M5,69.724c-.069.095-.135.19-.2.288C4.863,69.917,4.929,69.819,5,69.724Z" transform="translate(-0.141 -51.962)"/><path class="e" d="M4.862,69.908c-.063.1-.127.2-.187.3C4.735,70.109,4.8,70.009,4.862,69.908Z" transform="translate(-0.37 -51.617)"/><path class="e" d="M5.22,69.49c.092-.1.184-.2.282-.3-.04.043-.083.083-.121.124C5.326,69.372,5.275,69.432,5.22,69.49Z" transform="translate(0.653 -52.967)"/><path class="e" d="M5.289,69.375c-.075.083-.147.17-.219.256C5.142,69.545,5.214,69.458,5.289,69.375Z" transform="translate(0.371 -52.616)"/><path class="e" d="M4.734,70.1c-.058.1-.115.2-.173.308C4.619,70.3,4.676,70.2,4.734,70.1Z" transform="translate(-0.583 -51.258)"/><path class="e" d="M4.4,70.707c-.043.1-.081.207-.121.313C4.317,70.914,4.355,70.811,4.4,70.707Z" transform="translate(-1.116 -50.118)"/><path class="e" d="M4.5,70.5l-.138.311Z" transform="translate(-0.957 -50.508)"/><path class="e" d="M4.612,70.3c-.055.1-.1.207-.155.311C4.509,70.5,4.558,70.4,4.612,70.3Z" transform="translate(-0.779 -50.889)"/><path class="e" d="M5.142,69.546c-.072.089-.144.181-.213.273C5,69.727,5.07,69.635,5.142,69.546Z" transform="translate(0.107 -52.296)"/><path class="e" d="M5.474,69.075l.083-.08Z" transform="translate(1.129 -53.331)"/><path class="e" d="M6.1,68.53l.023-.014Z" transform="translate(2.294 -54.228)"/><path class="e" d="M6.315,68.427l.106-.055Z" transform="translate(2.707 -54.498)"/><path class="c" d="M5.447,88.673c.006-.081.014-.164.02-.247.009-.144.017-.288.032-.431.009-.1.023-.2.035-.293.017-.127.029-.253.049-.377.014-.1.035-.207.052-.308.02-.118.04-.239.063-.354s.046-.21.069-.316.049-.224.078-.334.058-.213.086-.319.058-.213.089-.316.066-.21.1-.313.066-.21.1-.313.078-.2.115-.3.078-.21.121-.313.083-.193.124-.288l.138-.311c.043-.092.089-.181.135-.273s.1-.207.155-.311c.046-.086.095-.173.144-.259.058-.1.115-.207.173-.308.052-.083.1-.167.155-.247.06-.1.124-.2.187-.3l.164-.242c.066-.1.132-.193.2-.288s.118-.158.178-.239.141-.184.213-.273.127-.158.193-.236.144-.173.219-.256.141-.158.213-.236c.055-.057.106-.118.161-.178.037-.04.081-.081.121-.124.144-.164.293-.322.449-.477l.083-.081a10.215,10.215,0,0,1,1.7-1.36l.023-.014c.2-.127.4-.244.61-.36l.106-.055c.219-.118.44-.227.667-.328a13.75,13.75,0,0,1,16.721,3.417,13.957,13.957,0,0,0-12.568-7.877c-.23,0-.454.006-.679.02l4.024-4.029a3.59,3.59,0,0,0,0-5.076L7.938,76.093A13.949,13.949,0,0,0,7.6,96.78a13.643,13.643,0,0,1-2.171-7.417C5.433,89.133,5.439,88.9,5.447,88.673Z" transform="translate(-3.178 -63.548)"/><path class="c" d="M6.352,68.586c.219-.118.44-.227.667-.328C6.792,68.359,6.571,68.468,6.352,68.586Z" transform="translate(2.776 -54.712)"/><path class="c" d="M7.206,68.521a10.215,10.215,0,0,0-1.7,1.36c.144-.144.293-.285.449-.417A10.061,10.061,0,0,1,7.206,68.521Z" transform="translate(1.184 -54.219)"/><path class="c" d="M6.1,68.751c.2-.127.4-.244.61-.36C6.506,68.506,6.3,68.624,6.1,68.751Z" transform="translate(2.309 -54.462)"/><path class="c" d="M5.318,69.5c.144-.164.293-.325.449-.477C5.611,69.177,5.462,69.335,5.318,69.5Z" transform="translate(0.837 -53.279)"/><path class="d" d="M15.656,86.372A10.36,10.36,0,0,1,7.862,69.188c-.1.1-.19.2-.282.3-.072.078-.144.155-.213.236s-.147.17-.219.256-.129.155-.193.236-.144.181-.213.273-.121.158-.178.239-.135.193-.2.288l-.164.242c-.063.1-.127.2-.187.3-.052.081-.1.164-.155.247-.058.1-.115.2-.173.308-.049.086-.1.173-.144.259-.055.1-.1.207-.155.311s-.092.181-.135.273l-.138.311c-.04.095-.083.193-.124.288s-.081.207-.121.313-.078.2-.115.3-.069.21-.1.313-.069.207-.1.313-.06.21-.089.316-.06.213-.086.319-.052.221-.078.334-.049.21-.069.316-.043.236-.063.354c-.017.1-.037.2-.052.308-.02.124-.032.25-.049.377-.012.1-.026.2-.035.293-.014.144-.023.288-.032.431-.006.083-.014.167-.02.247-.009.23-.014.46-.014.69A13.643,13.643,0,0,0,6.133,86.2a13.865,13.865,0,0,0,9.523,3.762c.089,0,.178-.006.267-.006V86.366C15.834,86.369,15.745,86.372,15.656,86.372Z" transform="translate(-1.707 -52.967)"/><path class="d" d="M12.79,67.744a13.658,13.658,0,0,0-6.206,1.478,10.257,10.257,0,0,1,4.153-.871,10.363,10.363,0,0,1,9.85,13.589h3.727a14,14,0,0,0-1.009-9.3A13.706,13.706,0,0,0,12.79,67.744Z" transform="translate(3.212 -55.676)"/><path class="d" d="M4.655,70.206c-.049.086-.1.173-.144.259C4.557,70.379,4.606,70.292,4.655,70.206Z" transform="translate(-0.677 -51.057)"/><path class="d" d="M5.359,69.293c-.072.078-.144.155-.213.236C5.215,69.448,5.287,69.371,5.359,69.293Z" transform="translate(0.514 -52.77)"/><path class="d" d="M4.9,69.824l-.164.242Z" transform="translate(-0.248 -51.774)"/><path class="d" d="M5.045,69.641c-.06.081-.121.158-.178.239C4.925,69.8,4.985,69.722,5.045,69.641Z" transform="translate(-0.009 -52.117)"/><path class="d" d="M5.2,69.464c-.066.078-.129.155-.193.236C5.066,69.619,5.13,69.542,5.2,69.464Z" transform="translate(0.246 -52.449)"/><path class="d" d="M4.776,70.013c-.052.081-.1.164-.155.247C4.673,70.177,4.725,70.094,4.776,70.013Z" transform="translate(-0.471 -51.42)"/><path class="d" d="M4.02,71.946c-.012.1-.026.2-.035.293C3.994,72.142,4.008,72.044,4.02,71.946Z" transform="translate(-1.664 -47.793)"/><path class="d" d="M4.191,71.248c-.029.106-.06.213-.086.319C4.131,71.461,4.163,71.354,4.191,71.248Z" transform="translate(-1.439 -49.103)"/><path class="d" d="M4.123,71.475c-.023.106-.049.21-.069.316C4.074,71.685,4.1,71.581,4.123,71.475Z" transform="translate(-1.535 -48.677)"/><path class="d" d="M4.545,70.4c-.046.092-.092.181-.135.273C4.453,70.585,4.5,70.5,4.545,70.4Z" transform="translate(-0.867 -50.686)"/><path class="d" d="M4.352,70.816c-.037.1-.078.2-.115.3C4.274,71.014,4.315,70.914,4.352,70.816Z" transform="translate(-1.191 -49.913)"/><path class="d" d="M4.443,70.607c-.04.095-.083.193-.124.288C4.359,70.8,4.4,70.7,4.443,70.607Z" transform="translate(-1.037 -50.305)"/><path class="d" d="M3.987,72.2c-.006.083-.014.167-.02.247C3.973,72.365,3.981,72.281,3.987,72.2Z" transform="translate(-1.698 -47.32)"/><path class="d" d="M4.066,71.708c-.017.1-.037.2-.052.308C4.028,71.912,4.049,71.809,4.066,71.708Z" transform="translate(-1.61 -48.24)"/><path class="d" d="M4.267,71.029c-.035.1-.069.207-.1.313C4.2,71.236,4.232,71.133,4.267,71.029Z" transform="translate(-1.324 -49.513)"/></svg>