<svg xmlns="http://www.w3.org/2000/svg" width="28.975" height="28.725" viewBox="0 0 28.975 28.725"><defs><style>.a{fill:#4dbf49;}</style></defs><path class="a" d="M47.513,15.62V14.14L36.27,15.62Z" transform="translate(-19.573 -9.143)"/><rect class="a" width="10.348" height="2.07" transform="translate(1.035 26.655)"/><path class="a" d="M44.027,9.29,31.19,12.581l12.837-1.687Z" transform="translate(-17.122 -6.803)"/><path class="a" d="M16,19v9.07l3.679-3.808a2.6,2.6,0,0,1,2.768-.59,5.171,5.171,0,1,1,.673,4.465l-3.286,3.28H38.766V19Zm4.657,1.552h-1.1a2.077,2.077,0,0,1-1.487,1.487v1.1H17.035V21.587a.517.517,0,0,1,.517-.517,1.035,1.035,0,0,0,1.035-1.035.517.517,0,0,1,.517-.517h1.552Zm17.075,7.761a.517.517,0,0,1-.517.517,1.035,1.035,0,0,0-1.035,1.035.517.517,0,0,1-.517.517H34.109V29.348h1.1A2.077,2.077,0,0,1,36.7,27.862v-1.1h1.035Zm0-4.657H36.7v-1.1A2.077,2.077,0,0,1,35.21,21.07h-1.1V20.035h1.552a.517.517,0,0,1,.517.517,1.035,1.035,0,0,0,1.035,1.035.517.517,0,0,1,.517.517Z" transform="translate(-9.791 -11.489)"/><path class="a" d="M34.245,31.278A4.139,4.139,0,1,0,30.22,26.2a2.6,2.6,0,0,1,.7,1.356c.021.166.036.3.041.44a2.782,2.782,0,0,1-.3,1.2A4.1,4.1,0,0,0,34.245,31.278Zm0-3.622a1.549,1.549,0,0,1-.517-3.009v-.613h1.035v.613A1.552,1.552,0,0,1,35.8,26.1H34.763a.517.517,0,1,0-.517.517,1.549,1.549,0,0,1,.517,3.009v.613H33.728v-.613a1.552,1.552,0,0,1-1.035-1.457h1.035a.517.517,0,1,0,.517-.517Z" transform="translate(-16.653 -13.419)"/><path class="a" d="M14.866,30.1V28.8a2.559,2.559,0,0,0-.761-1.832L12.429,25.3l.005-.005a.473.473,0,0,1-.114-.166.517.517,0,0,1,.109-.564l4.393-4.393a1.586,1.586,0,0,0,.455-1.1c-.005-.083-.016-.186-.026-.29a1.556,1.556,0,0,0-2.623-.8L10.064,22.7a.517.517,0,0,1-.569.124.526.526,0,0,1-.321-.481V11.477a.517.517,0,0,1,.517-.517h1.257l2.4-4.15a1.551,1.551,0,1,0-2.685-1.552L4.212,16.429A1.509,1.509,0,0,0,4,17.2v6.4a1.717,1.717,0,0,0,.057.429L5.79,30.1Z" transform="translate(-4 -4.483)"/></svg>