<svg xmlns="http://www.w3.org/2000/svg" width="37.594" height="25.063" viewBox="0 0 37.594 25.063"><defs><style>.a{fill:#4dbf49;}</style></defs><g transform="translate(6.266 7.831)"><path class="a" d="M94.24,192.046a.782.782,0,0,0-1.018.435l-2.937,7.34h-.252v-7.049a.784.784,0,0,0-.783-.783H86.116a.783.783,0,1,0,0,1.566h2.35V200.6a.784.784,0,0,0,.783.783h1.566a.783.783,0,0,0,.727-.492l3.133-7.832A.782.782,0,0,0,94.24,192.046Z" transform="translate(-85.333 -191.989)"/></g><g transform="translate(15.663 7.832)"><path class="a" d="M215.821,192.019a.792.792,0,0,0-.921.614l-1.566,7.832a.783.783,0,0,0,.616.921.745.745,0,0,0,.155.016.783.783,0,0,0,.766-.63l1.566-7.832A.783.783,0,0,0,215.821,192.019Z" transform="translate(-213.318 -192.003)"/></g><g transform="translate(18.797 7.829)"><path class="a" d="M261.67,192.121c-.127-.034-3.141-.774-4.3,1.112a2.288,2.288,0,0,0-.338,1.79,3.964,3.964,0,0,0,2,2.159c.9.536,1.38,1.078,1.28,1.446a1.527,1.527,0,0,1-.744.934,3.309,3.309,0,0,1-2.539-.078.784.784,0,1,0-.5,1.485,6.445,6.445,0,0,0,2.058.381,3.592,3.592,0,0,0,1.723-.4,3.087,3.087,0,0,0,1.519-1.9c.215-.793.045-1.993-1.991-3.2-.346-.207-1.164-.694-1.283-1.184a.742.742,0,0,1,.15-.6c.461-.752,2.06-.548,2.585-.418a.783.783,0,0,0,.384-1.518Z" transform="translate(-255.993 -191.95)"/></g><g transform="translate(25.063 7.832)"><path class="a" d="M346.811,192h-1.566a.784.784,0,0,0-.727.492l-3.133,7.832a.782.782,0,0,0,.435,1.018.765.765,0,0,0,.291.056.784.784,0,0,0,.727-.492l2.937-7.34h.252v7.049a.783.783,0,0,0,1.566,0v-7.832A.784.784,0,0,0,346.811,192Z" transform="translate(-341.328 -192)"/></g><g transform="translate(26.629 12.532)"><path class="a" d="M366.582,256h-3.133a.783.783,0,0,0,0,1.566h3.133a.783.783,0,1,0,0-1.566Z" transform="translate(-362.666 -256)"/></g><g transform="translate(0 0)"><path class="a" d="M32.112,85.333H5.483A5.489,5.489,0,0,0,0,90.816v14.1A5.489,5.489,0,0,0,5.483,110.4H32.112a5.489,5.489,0,0,0,5.482-5.483v-14.1A5.489,5.489,0,0,0,32.112,85.333Zm3.916,19.58a3.921,3.921,0,0,1-3.916,3.916H5.483a3.92,3.92,0,0,1-3.916-3.916v-14.1A3.921,3.921,0,0,1,5.483,86.9H32.112a3.92,3.92,0,0,1,3.916,3.916Z" transform="translate(0 -85.333)"/></g></svg>