<svg xmlns="http://www.w3.org/2000/svg" width="41.359" height="26.6" viewBox="0 0 41.359 26.6"><defs><style>.a{fill:#4dbf49;}</style></defs><path class="a" d="M28.058,0A13.225,13.225,0,0,0,20.68,2.239,13.3,13.3,0,1,0,13.3,26.6,13.225,13.225,0,0,0,20.68,24.36,13.3,13.3,0,1,0,28.058,0ZM13.3,24.176A10.877,10.877,0,1,1,18.7,3.859a13.276,13.276,0,0,0,0,18.881,10.813,10.813,0,0,1-5.4,1.436ZM24.179,13.3a10.848,10.848,0,0,1-3.5,7.984,10.94,10.94,0,0,1-1.957-2.408h1.4a1.212,1.212,0,1,0,0-2.423H17.647a10.825,10.825,0,0,1-.344-1.52h4.757a1.212,1.212,0,1,0,0-2.423h-4.85a10.807,10.807,0,0,1,.219-1.52H20.12a1.212,1.212,0,1,0,0-2.423H18.266A10.937,10.937,0,0,1,20.68,5.316a10.849,10.849,0,0,1,3.5,7.984Zm3.879,10.877a10.813,10.813,0,0,1-5.4-1.436,13.276,13.276,0,0,0,0-18.881,10.876,10.876,0,1,1,5.4,20.317Zm0,0" transform="translate(0)"/></svg>