<svg xmlns="http://www.w3.org/2000/svg" width="35.741" height="26.487" viewBox="0 0 35.741 26.487"><defs><style>.a{fill:#4dbf49;}</style></defs><g transform="translate(22.916 17.013)"><path class="a" d="M281.514,258.7a3.022,3.022,0,0,0-3.395,0,2.987,2.987,0,0,0-1.693-.52,3.03,3.03,0,0,0,0,6.06,2.988,2.988,0,0,0,1.693-.52,3.03,3.03,0,0,0,3.395-5.021Zm-.679,3.386a1.343,1.343,0,0,1-1.894.168,1.165,1.165,0,0,1-.176-.176.81.81,0,0,0-.645-.293.832.832,0,0,0-.645.3,1.311,1.311,0,0,1-1.039.486,1.356,1.356,0,0,1-1.358-1.349,1.346,1.346,0,0,1,2.389-.863.84.84,0,0,0,1.182.126.891.891,0,0,0,.126-.126,1.345,1.345,0,1,1,2.062,1.727Z" transform="translate(-273.4 -258.175)"/></g><g transform="translate(0 0)"><path class="a" d="M35.707,65.627c0-.075.034-.159.034-.243s-.034-.159-.034-.235V63.356a3.567,3.567,0,0,0-3.587-3.546H31.1V58.8a3.567,3.567,0,0,0-3.537-3.6H3.554A3.581,3.581,0,0,0,0,58.8V73.531a3.538,3.538,0,0,0,3.529,3.546h1v1.014a3.6,3.6,0,0,0,3.579,3.6H32.119a3.615,3.615,0,0,0,3.587-3.6V69.558c0-.075.034-.159.034-.235s-.034-.159-.034-.235ZM4.526,63.356V75.4H3.554a1.86,1.86,0,0,1-1.878-1.836V58.8a1.905,1.905,0,0,1,1.878-1.919H27.568A1.891,1.891,0,0,1,29.429,58.8V59.81H8.105A3.559,3.559,0,0,0,4.526,63.356Zm29.5,14.736a1.928,1.928,0,0,1-1.911,1.919H8.105a1.916,1.916,0,0,1-1.9-1.919V70.12H34.03Zm0-9.648H6.2V66.264H34.03Zm.008-3.856H6.2V63.356a1.884,1.884,0,0,1,1.9-1.869H32.128a1.885,1.885,0,0,1,1.911,1.869v1.232Z" transform="translate(0 -55.2)"/></g></svg>