<svg xmlns="http://www.w3.org/2000/svg" width="26.607" height="24.479" viewBox="0 0 26.607 24.479"><defs><style>.a{fill:#4dbf49;}</style></defs><path class="a" d="M22.95-1.332H3.659A3.662,3.662,0,0,0,0,2.326V14.132A3.662,3.662,0,0,0,3.646,17.79v5.357l7.7-5.357H22.95a3.662,3.662,0,0,0,3.658-3.658V2.326A3.662,3.662,0,0,0,22.95-1.332Zm2.1,15.464a2.1,2.1,0,0,1-2.1,2.1H10.856L5.2,20.163V16.231H3.659a2.1,2.1,0,0,1-2.1-2.1V2.326a2.1,2.1,0,0,1,2.1-2.1H22.95a2.1,2.1,0,0,1,2.1,2.1Zm0,0" transform="translate(-0.001 1.332)"/><path class="a" d="M171.293,131.172h12.365v1.559H171.293Zm0,0" transform="translate(-164.172 -125.663)"/><path class="a" d="M171.293,211.172h12.365v1.559H171.293Zm0,0" transform="translate(-164.172 -202.337)"/><path class="a" d="M171.293,291.172h12.365v1.559H171.293Zm0,0" transform="translate(-164.172 -279.011)"/></svg>