<svg xmlns="http://www.w3.org/2000/svg" width="19.569" height="21" viewBox="0 0 19.569 21"><defs><style>.a{fill:#4dbf49;}</style></defs><g transform="translate(-17.44)"><g transform="translate(17.44 11.828)"><path class="a" d="M27.225,288.389c-6.31,0-9.785,2.985-9.785,8.405a.766.766,0,0,0,.766.766H36.243a.766.766,0,0,0,.766-.766C37.009,291.374,33.534,288.389,27.225,288.389ZM19,296.028c.3-4.053,3.064-6.106,8.224-6.106s7.923,2.053,8.224,6.106Z" transform="translate(-17.44 -288.389)"/></g><g transform="translate(22.141)"><path class="a" d="M137.133,0a5.023,5.023,0,0,0-5.084,5.186,5.1,5.1,0,1,0,10.168,0A5.023,5.023,0,0,0,137.133,0Zm0,9.172a3.791,3.791,0,0,1-3.551-3.985,3.485,3.485,0,0,1,3.551-3.653,3.524,3.524,0,0,1,3.551,3.653A3.791,3.791,0,0,1,137.133,9.172Z" transform="translate(-132.049)"/></g></g></svg>