<svg xmlns="http://www.w3.org/2000/svg" width="26.169" height="23" viewBox="0 0 26.169 23"><defs><style>.a{fill:#4dbf49;}</style></defs><path class="a" d="M8.431,15.334h13.9a.767.767,0,0,0,.737-.556L26.139,4.044a.767.767,0,0,0-.737-.977H6.663L6.115.6A.767.767,0,0,0,5.367,0H.766a.767.767,0,1,0,0,1.533H4.752L7.52,13.99a2.3,2.3,0,0,0,.914,4.41h13.9a.767.767,0,1,0,0-1.533H8.433a.767.767,0,0,1,0-1.533ZM24.386,4.6l-2.629,9.2H9.048L7,4.6Zm0,0" transform="translate(0 0)"/><path class="a" d="M150,362.3a2.3,2.3,0,1,0,2.3-2.3A2.3,2.3,0,0,0,150,362.3Zm2.3-.767a.767.767,0,1,1-.767.767A.768.768,0,0,1,152.3,361.533Zm0,0" transform="translate(-142.333 -341.6)"/><path class="a" d="M362,362.3a2.3,2.3,0,1,0,2.3-2.3A2.3,2.3,0,0,0,362,362.3Zm2.3-.767a.767.767,0,1,1-.767.767A.768.768,0,0,1,364.3,361.533Zm0,0" transform="translate(-343.498 -341.6)"/></svg>