<svg xmlns="http://www.w3.org/2000/svg" width="21.365" height="21.383" viewBox="0 0 21.365 21.383"><defs><style>.a{fill:#4dbf49;}</style></defs><g transform="translate(0 13)"><g transform="translate(0 -13)"><path class="a" d="M21.358,10.151,19.831,8.624l-8.4-8.4a.764.764,0,0,0-1.08,0l-8.4,8.4L.422,10.152a.764.764,0,0,0,1.08,1.08l.223-.225v9.612a.764.764,0,0,0,.764.764h16.8a.764.764,0,0,0,.764-.764V11.007l.224.224a.764.764,0,0,0,1.08-1.08Zm-8.177,9.7H8.6v-6.11h4.582Zm5.346,0H14.708V12.982a.764.764,0,0,0-.764-.764H7.835a.764.764,0,0,0-.764.764v6.873H3.253V9.48L10.89,1.842,18.527,9.48Z" transform="translate(-0.208 0)"/></g></g></svg>