<svg xmlns="http://www.w3.org/2000/svg" width="23.982" height="29" viewBox="0 0 23.982 29"><defs><style>.a{fill:#4dbf49;}</style></defs><g transform="translate(-39.151 -0.001)"><g transform="translate(39.151 0.001)"><path class="a" d="M62.564.174l-.038,0L59.781,0a3.784,3.784,0,0,0-3.65,2.344l-.368.971a37.947,37.947,0,0,0-4.353-.268,35.754,35.754,0,0,0-4.353.268,4.152,4.152,0,1,0-3.884,5.927l2.712,18.081C45.985,28.833,49.769,29,51.41,29s5.391-.167,5.491-1.674L60.082,5.8a.9.9,0,0,0,.1-.4c0-.971-1.373-1.54-3.047-1.875a6.012,6.012,0,0,1,.268-.7,2.31,2.31,0,0,1,2.31-1.473l2.712.167a.636.636,0,0,0,.7-.636A.636.636,0,0,0,62.564.174ZM47.425,4.624A37.489,37.489,0,0,1,51.41,4.39a31.473,31.473,0,0,1,3.851.2L54.591,6.3c-.938.067-1.976.134-3.181.134A34.254,34.254,0,0,1,47.291,6.2a4.219,4.219,0,0,0,.167-1.1C47.459,4.926,47.425,4.792,47.425,4.624Zm-4.2.165-.016,0a.67.67,0,0,0-.569.67H42.6a.033.033,0,0,1,.033.033v.067l.335,2.243a2.779,2.779,0,0,1-2.478-2.712A2.813,2.813,0,0,1,43.273,2.28a2.846,2.846,0,0,1,2.846,2.813,3.047,3.047,0,0,1-.167.9,5.512,5.512,0,0,1-2.009-.67A.636.636,0,0,0,43.222,4.789Zm1.19,3.719V8.374L44.177,6.9a26.7,26.7,0,0,0,7.233.871c.435,0,1.44,0,2.645-.1-.77,1.942-1.574,3.951-2.176,5.525H51.41c-1.54,0-4.554.1-6.161.8Zm8.371,6.061a15.4,15.4,0,0,1,4.185.6,16.72,16.72,0,0,1-4.688.636Zm-1.44-.034c-.2.536-.4.971-.5,1.272a17.225,17.225,0,0,1-4.956-.636A17.683,17.683,0,0,1,51.343,14.536ZM55.6,27.059a10.24,10.24,0,0,1-4.185.6,10.463,10.463,0,0,1-4.219-.6L45.617,16.478a20.975,20.975,0,0,0,5.793.67,20.793,20.793,0,0,0,5.759-.636Zm1.942-13.092a14.622,14.622,0,0,0-4.252-.737l2.243-5.692A15.27,15.27,0,0,0,58.575,6.9Zm1.139-8.572h0a7.772,7.772,0,0,1-2.578.7c.2-.435.368-.871.536-1.306A8.069,8.069,0,0,1,58.676,5.394Z" transform="translate(-39.151 -0.001)"/></g></g></svg>