<svg xmlns="http://www.w3.org/2000/svg" width="512px" height="512px" viewBox="0 0 34.382 30"><defs><style>.a{fill:#4dbf49;}</style></defs><g transform="translate(0 -37.5)"><path class="a" d="M30.337,156.044h1.987a2.092,2.092,0,0,0,2.058-2.12v-6.215a2.092,2.092,0,0,0-2.058-2.12H30.337V142.5H14.157v6.251H11.8a2.7,2.7,0,0,0-2.66,2.431H7.021a2.664,2.664,0,0,0-2.585,2.173A5.521,5.521,0,0,0,0,158.823v6.6H34.382V159.17h-4.8a4.737,4.737,0,0,0,.758-2.581Zm1.987-8.372a.036.036,0,0,1,.036.037v6.215a.036.036,0,0,1-.036.037H30.337v-6.288Zm-4.009-3.089v12.006a2.566,2.566,0,0,1-2.022,2.532v-.3a5.521,5.521,0,0,0-4.435-5.467,2.664,2.664,0,0,0-2.585-2.173H17.021a2.8,2.8,0,0,0-.841-1.687v-4.912ZM19.888,159.17h-2.7v-5.9h2.08a.627.627,0,0,1,.616.635Zm2.022-3.661a3.469,3.469,0,0,1,2.36,3.313v.347H21.91ZM11.8,150.835h2.548a.686.686,0,0,1,.675.695v7.64h-3.9v-7.487C11.124,151.292,11.3,150.835,11.8,150.835Zm-4.777,2.431H9.1v5.9H6.4V153.9A.627.627,0,0,1,7.021,153.266Zm-5,5.557a3.469,3.469,0,0,1,2.36-3.313v3.661H2.022Zm30.337,4.515H2.022v-2.084H32.36Z" transform="translate(0 -97.921)"/><path class="a" d="M241,67.5h2.022v3.034H241Z" transform="translate(-224.753 -27.978)"/><path class="a" d="M391,67.5h2.022v3.034H391Z" transform="translate(-364.64 -27.978)"/><path class="a" d="M316,37.5h2.023v5.056H316Z" transform="translate(-294.697)"/></g></svg>