<svg xmlns="http://www.w3.org/2000/svg" width="29.002" height="29" viewBox="0 0 29.002 29"><defs><style>.a{fill:#4dbf49;}</style></defs><g transform="translate(-0.001 -0.02)"><g transform="translate(0.001 0.02)"><path class="a" d="M26.416,2.606A8.554,8.554,0,0,0,20.456.021a8.7,8.7,0,0,0-6.227,2.667,12.043,12.043,0,0,0-3.205,5.921,12.233,12.233,0,0,1-3.3,6.2l-.072.072a.861.861,0,0,0,0,1.217l.381.381L4.762,19.743a3.2,3.2,0,0,0-1.666-.41,3.194,3.194,0,0,0-.085,6.382.322.322,0,0,1,.3.3A3.194,3.194,0,1,0,9.279,24.26l3.269-3.269.381.381a.861.861,0,0,0,1.217,0l.073-.073a12.243,12.243,0,0,1,6.2-3.3,12.047,12.047,0,0,0,5.913-3.2A8.7,8.7,0,0,0,29,8.57,8.555,8.555,0,0,0,26.416,2.606ZM7.537,23.567a.86.86,0,0,0,0,1.217,1.473,1.473,0,0,1-.07,2.149,1.489,1.489,0,0,1-1.943,0,1.467,1.467,0,0,1-.5-1.022A2.035,2.035,0,0,0,3.11,24a1.467,1.467,0,0,1-1.023-.5,1.489,1.489,0,0,1,0-1.943,1.464,1.464,0,0,1,1.061-.5H3.2a1.459,1.459,0,0,1,1.04.431.861.861,0,0,0,1.217,0l3.793-3.793,2.083,2.083Zm17.575-9.986a10.43,10.43,0,0,1-5.046,2.732,14.021,14.021,0,0,0-6.514,3.25L9.459,15.47a14.007,14.007,0,0,0,3.249-6.511,10.426,10.426,0,0,1,2.736-5.053A6.675,6.675,0,0,1,25.2,3.823,6.675,6.675,0,0,1,25.112,13.581Z" transform="translate(-0.001 -0.02)"/></g></g></svg>