<svg xmlns="http://www.w3.org/2000/svg" width="15.293" height="29" viewBox="0 0 15.293 29"><defs><style>.a{fill:#4dbf49;}</style></defs><path class="a" d="M128.646,0A7.645,7.645,0,0,0,122.7,12.451v3.691a2.553,2.553,0,0,0,1.81,2.439L126.226,29h4.84l1.717-10.418a2.553,2.553,0,0,0,1.81-2.439V12.451A7.645,7.645,0,0,0,128.646,0ZM132.8,3.4H131.2V5.947a.85.85,0,0,1-1.7,0V3.4h-5.007a5.936,5.936,0,0,1,8.315,0Zm-9.53,1.7H127.8v.85a2.549,2.549,0,0,0,5.1,0V5.1h1.125a5.945,5.945,0,0,1-1.211,6.8h-8.324a5.944,5.944,0,0,1-1.211-6.8Zm4.394,22.2-1.419-8.609h4.795L129.625,27.3Zm5.226-11.158a.851.851,0,0,1-.85.85h-6.8a.851.851,0,0,1-.85-.85V13.594h8.5Z" transform="translate(-121)"/></svg>