<svg xmlns="http://www.w3.org/2000/svg" width="32.166" height="29" viewBox="0 0 32.166 29"><defs><style>.a{fill:#4dbf49;}</style></defs><g transform="translate(0 -25.197)"><path class="a" d="M30.024,162.4,27.165,155.8H5L2.142,162.4a2.384,2.384,0,0,0,0,4.744L5,173.787H27.167l2.859-6.647a2.384,2.384,0,0,0,0-4.744Zm-10.432-4.963-.754,1.63H13.329l-.754-1.63Zm-13.284,0h4.237l1.508,3.26h8.061l1.508-3.26h4.237l2.12,4.89H4.187Zm19.55,14.724H6.309l-2.126-4.944h23.8Zm3.482-6.574H2.827a.824.824,0,1,1,0-1.63H29.339a.824.824,0,1,1,0,1.63Z" transform="translate(0 -119.59)"/><path class="a" d="M174.18,30.591a5.037,5.037,0,0,1,1.045-3.353l-.016.017L173.152,25.2a7.728,7.728,0,0,0-1.881,5.394,5.037,5.037,0,0,1-1.045,3.353l.016-.017,2.058,2.058a7.728,7.728,0,0,0,1.881-5.394Z" transform="translate(-160.182)"/><path class="a" d="M234.18,30.591a5.037,5.037,0,0,1,1.045-3.353l-.016.017L233.152,25.2a7.728,7.728,0,0,0-1.881,5.394,5.037,5.037,0,0,1-1.045,3.353l.016-.017,2.058,2.058a7.728,7.728,0,0,0,1.881-5.394Z" transform="translate(-216.642)"/><path class="a" d="M294.18,30.591a5.037,5.037,0,0,1,1.045-3.353l-.016.017L293.152,25.2a7.728,7.728,0,0,0-1.881,5.394,5.037,5.037,0,0,1-1.045,3.353l.016-.017,2.058,2.058a7.728,7.728,0,0,0,1.881-5.394Z" transform="translate(-273.102)"/></g></svg>