<svg xmlns="http://www.w3.org/2000/svg" width="42" height="42" viewBox="0 0 42 42"><defs><style>.a{fill:#fff;}</style></defs><g transform="translate(0 0)"><g transform="translate(0 0)"><path class="a" d="M20.084,25.265H15.641V15.148a.82.82,0,1,0-1.641,0v5.66H12.032V1.641H14V7.766a.82.82,0,1,0,1.641,0V.82a.82.82,0,0,0-.82-.82H11.211a.82.82,0,0,0-.82.82V25.265H5.948a2.943,2.943,0,0,0-2.94,2.94v2.162A20,20,0,0,1,.12,40.754.82.82,0,0,0,.821,42H19.2a.82.82,0,0,0,.7-.395,21.639,21.639,0,0,0,3.127-11.238V28.205A2.943,2.943,0,0,0,20.084,25.265Zm-8.053-2.816H14v2.816H12.032ZM5.948,26.906H20.084a1.3,1.3,0,0,1,1.3,1.3v1.336H4.649V28.205A1.3,1.3,0,0,1,5.948,26.906Zm12.78,13.453H14.471A21.759,21.759,0,0,0,16.14,36.07a.82.82,0,1,0-1.583-.431,20,20,0,0,1-1.955,4.72H8.346a21.755,21.755,0,0,0,1.669-4.289.82.82,0,0,0-1.583-.431,20,20,0,0,1-1.955,4.72H2.222a21.656,21.656,0,0,0,2.411-9.172H21.367a19.986,19.986,0,0,1-2.639,9.172Z" transform="translate(0 0)"/><path class="a" d="M320.485,387.761a2.991,2.991,0,0,0-2.129.882.82.82,0,0,0,1.16,1.16,1.371,1.371,0,1,1,1.938,1.939.82.82,0,1,0,1.16,1.16,3.011,3.011,0,0,0-2.129-5.141Z" transform="translate(-292.02 -355.953)"/><path class="a" d="M303.887,247.641a1.4,1.4,0,0,1,1.395,1.395.82.82,0,0,0,1.641,0,3.035,3.035,0,0,0-6.07,0,.82.82,0,1,0,1.641,0A1.4,1.4,0,0,1,303.887,247.641Z" transform="translate(-276.173 -225.82)"/><path class="a" d="M384.438,304.967a4.839,4.839,0,0,0-7.6-5.809.82.82,0,1,0,1.135,1.184,3.2,3.2,0,0,1,4.536,4.506.82.82,0,0,0,.446,1.37,3.794,3.794,0,1,1-3.937,5.7.82.82,0,1,0-1.4.855,5.435,5.435,0,1,0,6.818-7.809Z" transform="translate(-345.696 -273.382)"/><path class="a" d="M171.49,129.67a.821.821,0,1,0,.58.24A.823.823,0,0,0,171.49,129.67Z" transform="translate(-156.67 -119.033)"/></g></g></svg>