<svg xmlns="http://www.w3.org/2000/svg" width="45.91" height="27.851" viewBox="0 0 45.91 27.851"><defs><style>.a{fill:#fff;}</style></defs><g transform="translate(0 -100.486)"><path class="a" d="M42.683,100.486H10.916a.674.674,0,0,0,0,1.348H42.683a1.881,1.881,0,0,1,1.879,1.879v14.35a1.881,1.881,0,0,1-1.879,1.879H41.069V115.55a.674.674,0,0,0-.674-.674H5.514a.674.674,0,0,0-.674.674v4.391H3.227a1.881,1.881,0,0,1-1.879-1.879v-14.35a1.881,1.881,0,0,1,1.879-1.879H8.22a.674.674,0,0,0,0-1.348H3.227A3.23,3.23,0,0,0,0,103.713v14.35a3.23,3.23,0,0,0,3.227,3.227h7.015a.674.674,0,0,0,0-1.348H6.188v-1.185H32.972a.674.674,0,1,0,0-1.348H6.188v-1.185H39.721v1.185H35.667a.674.674,0,0,0,0,1.348h4.054v1.185H12.938a.674.674,0,0,0,0,1.348H42.683a3.23,3.23,0,0,0,3.227-3.227v-14.35A3.231,3.231,0,0,0,42.683,100.486Z"/><path class="a" d="M422.527,147.815a.674.674,0,0,0,0-1.348h-1.993a.674.674,0,1,0,0,1.348Z" transform="translate(-382.132 -41.849)"/><path class="a" d="M257.113,147.815a.674.674,0,0,0,0-1.348H244.357a.674.674,0,0,0,0,1.348Z" transform="translate(-221.786 -41.849)"/><path class="a" d="M112.228,352.064a.674.674,0,0,0-.674.674,4.451,4.451,0,0,1-1.891,3.347.674.674,0,1,0,.781,1.1,5.8,5.8,0,0,0,2.458-4.445A.674.674,0,0,0,112.228,352.064Z" transform="translate(-99.551 -228.972)"/><path class="a" d="M187.957,352.064a.674.674,0,0,0-.674.674v3.9a.674.674,0,1,0,1.348,0v-3.9A.674.674,0,0,0,187.957,352.064Z" transform="translate(-170.454 -228.972)"/><path class="a" d="M250.738,352.064a.674.674,0,0,0-.674.674v3.9a.674.674,0,1,0,1.348,0v-3.9A.674.674,0,0,0,250.738,352.064Z" transform="translate(-227.594 -228.972)"/><path class="a" d="M365.567,356.085a4.435,4.435,0,0,1-1.891-3.35.674.674,0,0,0-1.348,0,5.8,5.8,0,0,0,2.458,4.445.674.674,0,1,0,.781-1.1Z" transform="translate(-329.77 -228.972)"/><path class="a" d="M309.3,352.064a.674.674,0,0,0-.674.674v3.9a.674.674,0,1,0,1.348,0v-3.9A.674.674,0,0,0,309.3,352.064Z" transform="translate(-280.893 -228.972)"/></g></svg>