<svg xmlns="http://www.w3.org/2000/svg" width="42" height="42" viewBox="0 0 42 42"><defs><style>.a{fill:#fff;}</style></defs><g transform="translate(-2 -2)"><path class="a" d="M27.9,37.7h4.9a2.106,2.106,0,0,0,2.1-2.1V29.9A2.8,2.8,0,0,0,37,27.2V25.765A7.708,7.708,0,0,0,44,18.1V12.5a2.106,2.106,0,0,0-2.1-2.1h-.7V4.8a2.8,2.8,0,1,0-5.6,0v5.6H32.8V4.8a2.8,2.8,0,1,0-5.6,0v5.6h-.7a2.106,2.106,0,0,0-2.1,2.1v5.6a7.708,7.708,0,0,0,7,7.665V27.2a2.8,2.8,0,0,0,2.1,2.7v5.7a.7.7,0,0,1-.7.7H27.9a2.1,2.1,0,0,0-2.03,2.618A2.137,2.137,0,0,0,27.977,40.5H41.9a.7.7,0,0,1,.7.7v.7a.7.7,0,0,1-.7.7H16.7a4.906,4.906,0,0,1-4.9-4.9V24.4h6.3a2.106,2.106,0,0,0,2.1-2.1V4.1A2.106,2.106,0,0,0,18.1,2H4.1A2.106,2.106,0,0,0,2,4.1V22.3a2.106,2.106,0,0,0,2.1,2.1h6.3V37.7A6.31,6.31,0,0,0,16.7,44H41.9A2.106,2.106,0,0,0,44,41.9v-.7a2.106,2.106,0,0,0-2.1-2.1H27.977a.77.77,0,0,1-.756-.525.673.673,0,0,1,.2-.672A.65.65,0,0,1,27.9,37.7ZM37,4.8a1.4,1.4,0,0,1,2.8,0v7.7H37Zm-8.4,0a1.4,1.4,0,0,1,2.8,0v7.7H28.6Zm2.807,19.558A6.3,6.3,0,0,1,25.8,18.1V12.5a.7.7,0,0,1,.7-.7h.7v1.4a.7.7,0,0,0,.7.7h4.2a.7.7,0,0,0,.7-.7V11.8h2.8v1.4a.7.7,0,0,0,.7.7h4.2a.7.7,0,0,0,.7-.7V11.8h.7a.7.7,0,0,1,.7.7v5.6a6.3,6.3,0,0,1-5.607,6.258,2.793,2.793,0,0,0-5.586,0ZM32.8,27.2V24.4a1.4,1.4,0,1,1,2.8,0v2.8a1.4,1.4,0,0,1-2.8,0ZM4.1,23a.7.7,0,0,1-.7-.7V4.1a.7.7,0,0,1,.7-.7h14a.7.7,0,0,1,.7.7V22.3a.7.7,0,0,1-.7.7Z"/><rect class="a" width="1" height="2" transform="translate(34 24.999)"/><path class="a" d="M17.7,12.929A.7.7,0,0,0,17.1,12.6H13.6V7.7a.7.7,0,0,0-.539-.679.689.689,0,0,0-.784.364l-4.2,8.4A.7.7,0,0,0,8.7,16.8h3.5v4.9a.7.7,0,0,0,.539.679.636.636,0,0,0,.161.021.7.7,0,0,0,.623-.385l4.2-8.4a.7.7,0,0,0-.028-.686Zm-4.095,5.8V16.1a.7.7,0,0,0-.7-.7H9.835L12.2,10.668V13.3a.7.7,0,0,0,.7.7h3.066Z" transform="translate(-1.801 -1.5)"/></g></svg>