<svg xmlns="http://www.w3.org/2000/svg" width="28.527" height="46" viewBox="0 0 28.527 46"><defs><style>.a{fill:#fff;}</style></defs><g transform="translate(-97.24)"><g transform="translate(119.566 17.473)"><g transform="translate(0)"><path class="a" d="M348.354,194.477h-1.941a.674.674,0,0,0,0,1.348h1.941a.674.674,0,0,0,0-1.348Z" transform="translate(-345.739 -194.477)"/></g></g><g transform="translate(97.24)"><g transform="translate(0)"><path class="a" d="M125.767,18.146A8.451,8.451,0,0,0,118,9.734V.674A.674.674,0,0,0,117.328,0H105.679a.674.674,0,0,0-.674.674v9.06a8.45,8.45,0,0,0-7.765,8.412h0V37.56a4.563,4.563,0,0,0,3.883,4.506v3.26A.674.674,0,0,0,101.8,46h19.414a.674.674,0,0,0,.674-.674v-3.26a4.564,4.564,0,0,0,3.883-4.5s0,0,0,0V18.146Zm-19.414-16.8h10.3V9.707h-3.02V6.5a.674.674,0,0,0-.674-.674h-2.912a.674.674,0,0,0-.674.674V9.707h-3.021Zm5.933,5.824V9.707h-1.565V7.172Zm8.251,37.48H102.47V42.117h18.067Zm3.883-7.766H105.907a.674.674,0,0,0,0,1.348h18.441a3.214,3.214,0,0,1-3.137,2.535H101.8a3.213,3.213,0,0,1-3.209-3.209V18.82H117.1a.674.674,0,0,0,0-1.348H98.621a7.1,7.1,0,0,1,7.059-6.418h11.652a7.1,7.1,0,0,1,7.088,7.092Z" transform="translate(-97.24)"/></g></g><g transform="translate(100.152 36.887)"><path class="a" d="M132.267,410.563h-1.941a.674.674,0,0,0,0,1.348h1.941a.674.674,0,0,0,0-1.348Z" transform="translate(-129.652 -410.563)"/></g><g transform="translate(106.93 21.355)"><path class="a" d="M214.184,245.605c-.007-.075-.014-.138-.016-.167h0a9.976,9.976,0,0,0-4.139-7.639.674.674,0,0,0-1.034.537,5.206,5.206,0,0,1-.891,2.611l-.343-.343a.674.674,0,0,0-1.033.1,9.382,9.382,0,0,0-1.569,4.127,8.271,8.271,0,0,0-.058,1.354,4.18,4.18,0,0,0,.049.547,4.557,4.557,0,0,0,9.075-.6C214.225,246.028,214.208,245.855,214.184,245.605Zm-4.515,3.738a3.212,3.212,0,0,1-3.184-2.8l0-.025a7.517,7.517,0,0,1,.932-4.352l.275.275a.674.674,0,0,0,.477.2h0a.674.674,0,0,0,.477-.2,6.565,6.565,0,0,0,1.513-2.8,8.825,8.825,0,0,1,2.667,5.888h0c0,.036.01.118.02.216s.034.338.035.4A3.213,3.213,0,0,1,209.668,249.343Z" transform="translate(-205.095 -237.695)"/></g></g></svg>