<svg xmlns="http://www.w3.org/2000/svg" width="36.908" height="47.673" viewBox="0 0 36.908 47.673"><defs><style>.a{fill:#fff;}</style></defs><g transform="translate(-9 -1)"><path class="a" d="M45.139,29.151H42.833V25.307A2.31,2.31,0,0,0,40.526,23H12.845a2.31,2.31,0,0,0-2.307,2.307v3.845H9v1.538h1.538v3.845a2.31,2.31,0,0,0,2.307,2.307H40.526a2.31,2.31,0,0,0,2.307-2.307V30.689H44.37v7.038L26.558,40.7a.769.769,0,0,0-.642.758V44.53H23.609a.769.769,0,0,0-.769.769v7.689a.769.769,0,0,0,.769.769h6.151a.769.769,0,0,0,.769-.769V45.3a.769.769,0,0,0-.769-.769H27.454V42.105l17.812-2.969a.769.769,0,0,0,.642-.758V29.92A.769.769,0,0,0,45.139,29.151Zm-3.845,5.382a.77.77,0,0,1-.769.769H12.845a.77.77,0,0,1-.769-.769V25.307a.77.77,0,0,1,.769-.769H40.526a.77.77,0,0,1,.769.769Zm-12.3,17.685H24.378V46.068h4.614Z" transform="translate(0 -5.084)"/><path class="a" d="M11,1h1.538V16.378H11Z" transform="translate(-0.462)"/><path class="a" d="M51,11h1.538v7.689H51Z" transform="translate(-9.705 -2.311)"/><path class="a" d="M51,1h1.538V2.538H51Z" transform="translate(-9.705)"/><path class="a" d="M51,5h1.538V8.076H51Z" transform="translate(-9.705 -0.924)"/><path class="a" d="M17,2h1.538V12H17Z" transform="translate(-1.849 -0.231)"/><path class="a" d="M23,15h1.538v4.614H23Z" transform="translate(-3.235 -3.235)"/><path class="a" d="M20.227,52.227a.769.769,0,0,1-1.538,0V47.614a2.307,2.307,0,0,0-4.614,0v1.538a.769.769,0,0,1-1.538,0V43H11v6.151a2.307,2.307,0,0,0,4.614,0V47.614a.769.769,0,0,1,1.538,0v4.614a2.307,2.307,0,0,0,4.614,0V43H20.227Z" transform="translate(-0.462 -9.705)"/></g></svg>