<svg xmlns="http://www.w3.org/2000/svg" width="47.38" height="33.638" viewBox="0 0 47.38 33.638"><defs><style>.a{fill:#fff;}</style></defs><path class="a" d="M16.582,31.772,19.507,34.7a10.5,10.5,0,0,1,14.872,0L37.3,31.772a14.651,14.651,0,0,0-20.722,0ZM9.919,25.106l2.929,2.929a19.907,19.907,0,0,1,28.191,0l2.929-2.929a24.076,24.076,0,0,0-34.049,0ZM26.943,8.631a33.394,33.394,0,0,0-23.69,9.813l2.931,2.931a29.322,29.322,0,0,1,41.518,0l2.931-2.931a33.394,33.394,0,0,0-23.69-9.813Zm0,27.441a3.1,3.1,0,1,0,3.1,3.1A3.1,3.1,0,0,0,26.943,36.072Z" transform="translate(-3.253 -8.631)"/></svg>