<svg xmlns="http://www.w3.org/2000/svg" width="24" height="24" viewBox="0 0 24 24"><defs><style>.a{fill:#000345;}</style></defs><g transform="translate(-3.375 -3.375)"><path class="a" d="M16.552,11.877a1.21,1.21,0,1,1,1.2,1.175A1.176,1.176,0,0,1,16.552,11.877Zm.082,2.1h2.244v8.464H16.634Z" transform="translate(-2.387 -1.417)"/><path class="a" d="M15.375,4.99a10.381,10.381,0,1,1-7.344,3.04,10.316,10.316,0,0,1,7.344-3.04m0-1.615a12,12,0,1,0,12,12,12,12,0,0,0-12-12Z" transform="translate(0 0)"/></g></svg>