<svg xmlns="http://www.w3.org/2000/svg" width="23.995" height="24" viewBox="0 0 23.995 24"><path d="M16.282,7.917C15.581,3.6,13.926.563,12,.563S8.419,3.6,7.718,7.917ZM7.355,12.563a30.329,30.329,0,0,0,.16,3.1h8.966a30.329,30.329,0,0,0,.16-3.1,30.329,30.329,0,0,0-.16-3.1H7.515A30.329,30.329,0,0,0,7.355,12.563ZM23.066,7.917a12.025,12.025,0,0,0-7.645-6.852A16.331,16.331,0,0,1,17.84,7.917ZM8.574,1.066A12.017,12.017,0,0,0,.934,7.917H6.16A16.265,16.265,0,0,1,8.574,1.066Zm15.01,8.4h-5.55c.1,1.016.16,2.056.16,3.1s-.058,2.081-.16,3.1h5.545a11.9,11.9,0,0,0,.416-3.1A12.1,12.1,0,0,0,23.584,9.466Zm-17.777,3.1c0-1.04.058-2.081.16-3.1H.416a11.731,11.731,0,0,0,0,6.194H5.961C5.865,14.643,5.806,13.6,5.806,12.563Zm1.911,4.645c.7,4.321,2.356,7.355,4.282,7.355s3.581-3.034,4.282-7.355Zm7.708,6.852a12.037,12.037,0,0,0,7.645-6.852H17.845a16.331,16.331,0,0,1-2.419,6.852ZM.934,17.208a12.025,12.025,0,0,0,7.645,6.852A16.331,16.331,0,0,1,6.16,17.208H.934Z" transform="translate(0 -0.563)"/></svg>