<svg xmlns="http://www.w3.org/2000/svg" width="27.488" height="24" viewBox="0 0 27.488 24"><defs><style>.a{fill:#000345;}</style></defs><g transform="translate(0 -31.05)"><g transform="translate(0 31.05)"><path class="a" d="M253.89,263.75h-3.8a1.889,1.889,0,0,0-1.887,1.887v2.916a1.889,1.889,0,0,0,1.887,1.887h3.8a1.889,1.889,0,0,0,1.887-1.887v-2.916A1.889,1.889,0,0,0,253.89,263.75Zm.515,4.8a.516.516,0,0,1-.515.515h-3.8a.516.516,0,0,1-.515-.515v-2.916a.516.516,0,0,1,.515-.515h3.8a.516.516,0,0,1,.515.515Z" transform="translate(-234.353 -250.769)"/><path class="a" d="M27.488,38.913a.626.626,0,0,0-.09-.331l-4.089-7.189a.678.678,0,0,0-.584-.343H4.757a.666.666,0,0,0-.584.343L.09,38.582a.681.681,0,0,0-.09.331,3.943,3.943,0,0,0,2.359,3.606V54.376a.676.676,0,0,0,.674.674H24.449a.676.676,0,0,0,.674-.674V42.6a.3.3,0,0,0-.006-.073A3.954,3.954,0,0,0,27.488,38.913ZM5.15,32.4H22.332l3.2,5.622H1.96Zm14.412,6.965a2.59,2.59,0,0,1-5.1,0Zm-6.532,0a2.594,2.594,0,0,1-5.106,0Zm-11.638,0H6.5a2.594,2.594,0,0,1-5.106,0ZM11.323,53.7H7.448V46.428a.96.96,0,0,1,.96-.96h1.96a.96.96,0,0,1,.96.96V53.7Zm12.452,0h-11.1V46.428a2.312,2.312,0,0,0-2.308-2.308H8.4a2.312,2.312,0,0,0-2.308,2.308v7.279H3.707V42.851c.079.006.157.006.236.006a3.938,3.938,0,0,0,3.269-1.741,3.939,3.939,0,0,0,6.538,0,3.929,3.929,0,0,0,6.527,0,3.938,3.938,0,0,0,3.269,1.741c.079,0,.152-.006.23-.006V53.7Zm-.23-12.194A2.589,2.589,0,0,1,21,39.374H26.1A2.6,2.6,0,0,1,23.545,41.508Z" transform="translate(0 -31.05)"/></g></g></svg>