<svg xmlns="http://www.w3.org/2000/svg" width="11.037" height="13.643" viewBox="0 0 11.037 13.643"><g transform="translate(0)"><path d="M58.933,2.372a5.508,5.508,0,0,0-9.057,0,5.509,5.509,0,0,0-.641,5.076,4.339,4.339,0,0,0,.8,1.32l4.007,4.707a.477.477,0,0,0,.726,0l4.006-4.705a4.343,4.343,0,0,0,.8-1.318A5.51,5.51,0,0,0,58.933,2.372ZM58.68,7.117a3.4,3.4,0,0,1-.629,1.031l0,0L54.4,12.43,50.759,8.147a3.4,3.4,0,0,1-.63-1.034,4.557,4.557,0,0,1,.533-4.2,4.554,4.554,0,0,1,7.487,0A4.558,4.558,0,0,1,58.68,7.117Z" transform="translate(-48.886)"/></g><g transform="translate(2.848 2.83)"><path d="M158.425,106.219a2.671,2.671,0,1,0,2.671,2.671A2.674,2.674,0,0,0,158.425,106.219Zm0,4.389a1.717,1.717,0,1,1,1.717-1.717A1.719,1.719,0,0,1,158.425,110.608Z" transform="translate(-155.754 -106.219)"/></g></svg>